<?xml version="1.0" standalone="no"?>
<!DOCTYPE svg PUBLIC "-//W3C//DTD SVG 1.1//EN" "http://www.w3.org/Graphics/SVG/1.1/DTD/svg11.dtd">
<svg width="100%" height="100%" viewBox="0 0 392 96" version="1.1" xmlns="http://www.w3.org/2000/svg" xmlns:xlink="http://www.w3.org/1999/xlink" xml:space="preserve" style="fill-rule:evenodd;clip-rule:evenodd;stroke-linejoin:round;stroke-miterlimit:1.41421;">
    <g id="Layer 1">
        <path d="M360.516,17.2361L363.713,17.2361L363.713,25.5971L365.009,25.5971L365.009,17.2361L368.206,17.2361L368.206,16.0951L360.516,16.0951L360.516,17.2361Z" style="fill:white;fill-rule:nonzero;"/>
        <path d="M377.915,16C377.677,16 377.487,16.113 377.374,16.297L374.052,21.574L370.73,16.297C370.612,16.113 370.427,16 370.201,16C369.827,16 369.589,16.285 369.589,16.624L369.589,25.597L370.825,25.597L370.825,18.537L373.553,22.917C373.636,23.042 373.797,23.202 374.052,23.202C374.308,23.202 374.462,23.06 374.551,22.929L377.273,18.537L377.273,25.597L378.515,25.597L378.515,16.612C378.515,16.267 378.26,16 377.915,16" style="fill:white;fill-rule:nonzero;"/>
        <path d="M47.0921,45.364L27.1091,45.364L27.1091,26.625L47.0921,26.625C52.6661,26.625 57.5661,29.796 57.5661,35.85C57.5661,42.001 52.6661,45.364 47.0921,45.364M70.0591,36.043C70.0591,24.992 61.6031,16.055 49.3981,16.055L20.9591,16.055C17.5951,16.055 14.8091,18.841 14.8091,22.205L14.8091,80.055L27.1091,80.055L27.1091,55.935L44.7911,55.935L58.9121,80.055L72.9421,80.055L57.6631,54.205C65.1581,51.226 70.0591,44.211 70.0591,36.043" style="fill:white;fill-rule:nonzero;"/>
        <path d="M145.398,60.8355L130.335,23.5025L123.176,35.6675L140.113,76.5955C140.978,78.8055 142.996,80.0545 145.302,80.0545C147.608,80.0545 149.722,78.8055 150.587,76.5955L175.572,16.0545L163.464,16.0545L145.398,60.8355Z" style="fill:white;fill-rule:nonzero;"/>
        <path d="M192.101,52.5712L217.47,52.5712C220.449,52.5712 222.852,50.2652 222.852,47.2862C222.852,44.4032 220.449,42.0002 217.47,42.0002L192.101,42.0002L192.101,26.6252L225.735,26.6252L225.735,16.0552L185.951,16.0552C182.587,16.0552 179.801,18.8412 179.801,22.2052L179.801,73.9042C179.801,77.2682 182.587,80.0542 185.951,80.0542L225.831,80.0542L225.831,69.4842L192.101,69.4842L192.101,52.5712Z" style="fill:white;fill-rule:nonzero;"/>
        <path d="M265.038,45.364L245.05,45.364L245.05,26.625L265.038,26.625C270.612,26.625 275.512,29.796 275.512,35.85C275.512,42.001 270.612,45.364 265.038,45.364M288.005,36.043C288.005,24.992 279.548,16.055 267.344,16.055L238.9,16.055C235.536,16.055 232.75,18.841 232.75,22.205L232.75,80.055L245.05,80.055L245.05,55.935L262.732,55.935L276.858,80.055L290.888,80.055L275.609,54.205C283.104,51.226 288.005,44.211 288.005,36.043" style="fill:white;fill-rule:nonzero;"/>
        <path d="M128.029,16.0547L127.909,16.0547L127.332,16.0547L115.44,16.0547L115.32,16.0547L115.128,16.0547L115.205,16.2467L99.1431,42.9617L82.8641,16.0547L82.7491,16.0547L70.1791,16.0547L70.0641,16.0547L92.9351,54.5897L92.9351,80.0547L105.35,80.0547L105.35,54.5897L120.428,28.9697L127.616,16.7567L128.029,16.0547Z" style="fill:rgb(123,193,235);fill-rule:nonzero;"/>
    </g>
    <g id="Layer 4">
        <path d="M317.8,16C326.537,22.005 349.8,25.166 349.8,34.286C349.8,44.971 318.943,45.545 318.943,54.857C318.943,61.455 336.073,73.615 349.8,80L320.086,80C312.659,74.175 305.91,67.179 305.229,57.143C304.2,41.989 341.8,40.163 341.8,34.286C341.8,30.948 332.3,26.857 323.514,22.857C318.964,20.786 314.803,18.381 312.086,16L317.8,16Z" style="fill:rgb(0,84,139);fill-rule:nonzero;"/>
        <path d="M312.086,16C314.803,18.381 318.964,20.786 323.515,22.857C332.301,26.857 341.8,30.948 341.8,34.286C341.8,40.163 304.2,41.989 305.229,57.143C305.91,67.179 312.659,74.175 320.086,80L349.8,80C336.073,73.615 318.943,61.455 318.943,54.857C318.943,45.545 349.8,44.972 349.8,34.286C349.8,25.166 326.538,22.006 317.8,16L312.086,16Z" style="fill:url(#tag1);fill-rule:nonzero;"/>
        <clipPath id="tag2">
            <path d="M304.086,16C298.372,16 294.943,19.381 294.943,25.143L294.943,70.857C294.943,76.619 298.348,80 304.086,80L349.8,80C355.478,80 358.943,76.536 358.943,70.857L358.943,25.143C358.943,19.452 355.514,16 349.8,16L304.086,16ZM318.943,54.857C318.943,45.545 349.8,44.972 349.8,34.286C349.8,44.972 318.943,45.545 318.943,54.857ZM305.208,56.529C305.221,41.938 341.8,40.082 341.8,34.286C341.8,40.082 305.221,41.938 305.208,56.529Z"/>
        </clipPath>
        <g clip-path="url(#tag2)">
            <g>
                <g opacity="0.350006">
                    <path d="M349.8,16.8571L320.074,16.0001L316.943,16.0001C316.943,16.0001 318.613,17.1561 318.883,17.3331C326.74,22.4761 349.8,26.0231 349.8,35.1431C349.8,45.8281 318.943,46.4021 318.943,55.7141C318.943,62.3121 336.073,74.4721 349.8,80.8571C355.479,80.8571 358.943,77.3931 358.943,71.7141L358.943,26.0001C358.943,20.3091 355.514,16.8571 349.8,16.8571" style="fill:black;fill-rule:nonzero;"/>
                </g>
            </g>
            <g>
                <g opacity="0.350006">
                    <path d="M305.229,58C304.2,42.846 341.8,41.02 341.8,35.143C341.8,31.805 332.3,27.714 323.515,23.714C318.965,21.643 314.803,19.238 312.086,16.857L304.086,16.857C298.372,16.857 294.943,20.238 294.943,26L294.943,71.714C294.943,77.476 298.348,80.857 304.086,80.857L320.086,80.857C312.66,75.032 305.911,68.036 305.229,58" style="fill:black;fill-rule:nonzero;"/>
                </g>
            </g>
        </g>
        <path d="M349.8,16L317.8,16C326.537,22.005 349.8,25.166 349.8,34.286C349.8,44.971 318.943,45.545 318.943,54.857C318.943,61.455 336.073,73.615 349.8,80C355.479,80 358.943,76.536 358.943,70.857L358.943,25.143C358.943,19.452 355.514,16 349.8,16" style="fill:rgb(123,193,235);fill-rule:nonzero;"/>
        <path d="M317.8,16C326.538,22.006 349.8,25.166 349.8,34.286C349.8,44.972 318.943,45.545 318.943,54.857C318.943,61.455 336.073,73.615 349.8,80C355.478,80 358.943,76.536 358.943,70.857L358.943,25.143C358.943,19.452 355.514,16 349.8,16L317.8,16Z" style="fill:url(#tag3);fill-rule:nonzero;"/>
        <path d="M305.229,57.1429C304.2,41.9889 341.8,40.1629 341.8,34.2859C341.8,30.9479 332.3,26.8569 323.515,22.8569C318.965,20.7859 314.803,18.3809 312.086,15.9999L304.086,15.9999C298.372,15.9999 294.943,19.3809 294.943,25.1429L294.943,70.8569C294.943,76.6189 298.348,79.9999 304.086,79.9999L320.086,79.9999C312.66,74.1749 305.911,67.1799 305.229,57.1429" style="fill:rgb(123,193,235);fill-rule:nonzero;"/>
        <path d="M304.086,16C298.372,16 294.943,19.381 294.943,25.143L294.943,70.857C294.943,76.619 298.348,80 304.086,80L320.086,80C312.659,74.175 305.91,67.179 305.229,57.143C304.2,41.989 341.8,40.163 341.8,34.286C341.8,30.948 332.301,26.857 323.515,22.857C318.964,20.786 314.803,18.381 312.086,16L304.086,16Z" style="fill:url(#tag4);fill-rule:nonzero;"/>
    </g>
    <defs>
        <linearGradient id="tag1" x1="0" y1="0" x2="1" y2="0" gradientUnits="userSpaceOnUse" gradientTransform="matrix(0,64,-64,0,327.504,16)"><stop offset="0%" style="stop-color:rgb(0,102,168);stop-opacity:1"/><stop offset="100%" style="stop-color:rgb(0,84,139);stop-opacity:1"/></linearGradient>
        <linearGradient id="tag3" x1="0" y1="0" x2="1" y2="0" gradientUnits="userSpaceOnUse" gradientTransform="matrix(0,64,-64,0,338.372,16)"><stop offset="0%" style="stop-color:rgb(133,209,255);stop-opacity:1"/><stop offset="100%" style="stop-color:rgb(123,193,235);stop-opacity:1"/></linearGradient>
        <linearGradient id="tag4" x1="0" y1="0" x2="1" y2="0" gradientUnits="userSpaceOnUse" gradientTransform="matrix(0,64,-64,0,318.372,16)"><stop offset="0%" style="stop-color:rgb(133,209,255);stop-opacity:1"/><stop offset="100%" style="stop-color:rgb(123,193,235);stop-opacity:1"/></linearGradient>
    </defs>
</svg>
